<svg width="90" height="90" viewBox="0 0 90 90" fill="none" xmlns="http://www.w3.org/2000/svg">
<path d="M31.4996 61.3215C31.4996 54.3078 27.4865 47.9556 20.9993 43.3566C14.513 47.9556 10.499 54.3078 10.499 61.3215C10.499 66.4956 13.6751 70.8165 18.0023 72.2286V81H24.0026V72.2259C28.3271 70.8138 31.4996 66.492 31.4996 61.3215Z" fill="#1FC100"/>
<path d="M45 9C25.119 9 9 25.119 9 45C9 45.6561 9.0612 46.2942 9.0963 46.9422C11.2266 43.8192 14.0301 40.9446 17.5311 38.4606L20.9997 36L24.471 38.4606C32.8734 44.4195 37.4994 52.5384 37.4994 61.3206C37.4994 68.1381 33.7698 74.0385 28.359 76.9032C33.3396 79.5087 38.9916 81 45 81C64.8837 81 81 64.8837 81 45C81 25.119 64.8837 9 45 9ZM42.0003 15.0003H48.0006V21.0006H42.0003V15.0003ZM47.9997 74.9997H41.9994V69.0003H47.9997V74.9997ZM59.7015 63.9432L42.8787 47.1204C41.7132 45.9549 41.7132 44.0451 42.8787 42.8787L55.4175 30.3399L59.6601 34.5816L49.2426 45L63.9432 59.7015L59.7015 63.9432ZM69.0003 47.9997V41.9994H74.9997V47.9997H69.0003Z" fill="#1FC100"/>
</svg>
