<svg width="90" height="90" viewBox="0 0 90 90" fill="none" xmlns="http://www.w3.org/2000/svg">
<path d="M34.4997 9C20.4174 9 9 20.4192 9 34.4997C9 48.5802 20.4174 60.0003 34.4997 60.0003C48.5802 60.0003 60.0003 48.5802 60.0003 34.4997C60.0003 20.4192 48.5802 9 34.4997 9ZM18 37.5003C16.3413 37.5003 15.0003 36.1584 15.0003 34.4997C15.0003 32.8446 16.3413 31.5 18 31.5C19.6551 31.5 20.9997 32.8446 20.9997 34.4997C20.9997 36.1584 19.6551 37.5003 18 37.5003ZM34.4997 54C32.8446 54 31.5 52.6581 31.5 51.0003C31.5 49.3443 32.8446 47.9997 34.4997 47.9997C36.1584 47.9997 37.5003 49.3443 37.5003 51.0003C37.5003 52.6581 36.1584 54 34.4997 54ZM34.4997 37.5003C32.8419 37.5003 31.5 36.1584 31.5 34.4997V15.0003H37.5003V31.5H54V37.5003H34.4997Z" fill="#FF8300"/>
<path d="M72.0003 56.9998H66C64.3422 56.9998 63.0003 55.6588 63.0003 54.0001H62.994L63.0003 53.9974C63.0003 52.3387 64.3422 51.0004 66 51.0004H72.0003C73.659 51.0004 74.9973 52.3414 74.9973 54.0001H81.0003C81.0003 49.0312 76.9665 45.0001 72.0003 44.9974V38.9998H66V45.0001V44.9974C61.0311 44.9974 57 49.0258 57 53.9974V54.0001C57 58.969 61.0311 63.0001 66 63.0001H72.0003C73.659 63.0001 74.9973 64.342 74.9973 65.9998H74.9946C74.9946 67.6585 73.6527 69.0004 71.994 69.0004H65.9973C64.3422 69.0004 63.0003 67.6585 63.0003 65.9998H57C57 70.9687 61.0311 74.9998 66 74.9998V81.0001H72.0003V74.9998C76.9665 74.9944 80.9976 70.9687 80.9976 65.9998H81.0003C81.0003 61.0318 76.9665 56.9998 72.0003 56.9998Z" fill="#FF8300"/>
</svg>
