<svg width="90" height="90" viewBox="0 0 90 90" fill="none" xmlns="http://www.w3.org/2000/svg">
<path d="M69.0003 9H63V15.0003H72V12.0006C72 10.3509 70.6491 9 69.0003 9Z" fill="#077D16"/>
<path d="M27.0002 21.0006C27.0002 19.3509 25.6502 18 24.0005 18H18.0002C16.3505 18 15.0005 19.35 15.0005 20.9997V23.9994H27.0002V21.0006Z" fill="#077D16"/>
<path d="M56.9997 39.0005V21.0005C56.9997 17.6867 54.3141 15.0002 51.0003 15.0002H42.0003C40.3506 15.0002 38.0448 15.956 36.8793 17.1215L27 26.9999H15.0003L9 33.0002V39.0005H56.9997ZM41.4783 21.0005H51.0003V33.0002H33.0003L31.2426 31.2425L41.4783 21.0005Z" fill="#077D16"/>
<path d="M9 45V74.9988C9 78.3162 11.6865 80.9991 15.0003 80.9991H51.0003C54.3141 80.9991 56.9997 78.3162 56.9997 74.9988V45H9ZM33.0003 68.9994H18V64.4994H33.0003V68.9994ZM36 59.9994H18V55.4994H36V59.9994ZM43.4997 70.4988C41.0121 70.4988 38.9997 68.49 38.9997 65.9988C38.9997 65.3895 39.123 64.8099 39.3426 64.2762L43.4997 55.4994C43.4997 55.4994 47.6604 64.2825 47.6568 64.2762C47.8764 64.8099 47.9997 65.3895 47.9997 65.9988C47.9997 68.49 45.9873 70.4988 43.4997 70.4988Z" fill="#077D16"/>
<path d="M81 65.9988V39.0006H63V65.9988H81ZM72 45C72 45 76.1634 53.7813 76.1571 53.7759C76.3767 54.3096 76.5 54.8892 76.5 55.4994C76.5 57.9897 74.4876 59.9994 72 59.9994C69.5124 59.9994 67.5 57.9897 67.5 55.4994C67.5 54.8892 67.6233 54.3096 67.8429 53.7768L72 45Z" fill="#077D16"/>
<path d="M81 33.0003V27L72 18H63V33.0003H81Z" fill="#077D16"/>
<path d="M63 71.9991V80.9991H74.9997C78.3108 80.9991 81 78.3162 81 74.9988V71.9991H63Z" fill="#077D16"/>
</svg>
