<svg width="320" height="86" viewBox="0 0 320 86" fill="none" xmlns="http://www.w3.org/2000/svg">
<g clip-path="url(#clip0_159_2245)">
<path d="M103.601 20.9062C103.601 33.6183 94.8637 41.874 82.5125 41.874H66.6055V0H82.5125C94.8637 0 103.601 8.19407 103.601 20.9062ZM95.7673 21.0265C95.7673 12.1107 90.2254 6.868 82.2719 6.868H74.3184V35.006H82.2719C90.2254 35.006 95.7673 29.8249 95.7673 21.0265Z" fill="white"/>
<path d="M120.038 24.2214H117.627V41.874H109.976V0H126.546C135.341 0 140.886 5.06078 140.886 12.1107C140.886 18.6765 136.004 23.5583 128.294 24.1597L141.429 41.874H132.812L120.038 24.2214ZM117.627 18.7381H126.364C130.823 18.7381 133.293 16.3295 133.293 12.7121C133.293 9.09474 130.823 6.74771 126.364 6.74771H117.627V18.7381Z" fill="white"/>
<path d="M176.728 6.868H164.136V41.874H156.423V6.868H143.77V0H176.728V6.868Z" fill="white"/>
<path d="M218.72 31.9343H202.39L199.017 41.8769H191.365L205.826 0H215.164L229.683 41.874H222.091L218.717 31.9313L218.72 31.9343ZM216.552 25.609L210.526 8.07672L204.561 25.609H216.552Z" fill="white"/>
<path d="M263.085 16.6903H258.024C258.866 18.4388 259.288 20.425 259.288 22.596C259.288 26.8148 257.722 30.309 254.89 32.6589C259.048 34.4661 261.157 37.7813 261.157 42.1175C261.157 48.6246 255.251 53.3832 245.673 53.3832C236.815 53.3832 231.937 49.8891 229.827 44.3471L236.757 41.6363C238.021 45.0102 240.612 47.0579 245.494 47.0579C250.736 47.0579 253.385 44.7667 253.385 41.4544C253.385 38.1422 250.554 35.7893 245.432 35.7893C236.997 35.7893 231.274 30.3676 231.274 22.5931C231.274 14.8186 236.997 9.39691 245.432 9.39691C247.239 9.39691 248.867 9.63748 250.372 10.1186H263.085V16.6874V16.6903ZM245.432 29.464C249.53 29.464 252.362 26.5713 252.362 22.596C252.362 18.6207 249.53 15.728 245.432 15.728C241.333 15.728 238.502 18.6207 238.502 22.596C238.502 26.5713 241.333 29.464 245.432 29.464Z" fill="white"/>
<path d="M284.422 9.39984V16.57C278.88 16.57 275.383 19.5214 275.383 23.7989V41.8739H267.731V10.1216H274.96V13.6773C277.128 11.1454 280.444 9.39984 284.419 9.39984H284.422Z" fill="white"/>
<path d="M286.138 26.0286C286.138 16.5084 293.126 9.39984 303.069 9.39984C313.011 9.39984 319.999 16.5084 319.999 26.0286C319.999 35.5487 312.95 42.5986 303.069 42.5986C293.188 42.5986 286.138 35.49 286.138 26.0286ZM312.287 25.9699C312.287 20.3047 308.611 16.2678 303.127 16.2678C297.644 16.2678 293.789 20.3047 293.789 26.0286C293.789 31.7524 297.585 35.7893 303.127 35.7893C308.669 35.7893 312.287 31.6908 312.287 25.9699Z" fill="white"/>
<path d="M42.0735 0.149597H41.1728C26.0931 23.2092 3.65257 20.1551 0 19.4833V24.0834C33.3425 25.521 42.0735 0.149597 42.0735 0.149597Z" fill="white"/>
<path d="M41.1728 0.149597H6.99709C3.13329 0.149597 0 3.21834 0 7.00586V19.4833C3.65257 20.1551 26.0931 23.2092 41.1728 0.152531V0.149597Z" fill="#00ADE6"/>
<path d="M0 24.0834V41.3723H34.9238C38.8727 41.3723 42.0735 38.236 42.0735 34.3693V0.149597C42.0735 0.149597 33.3425 25.521 0 24.0834Z" fill="#1FC100"/>
</g>
<path d="M1.40252 62.4562H13.8801V65.4547H4.64282V69.3237H12.5501V72.3222H4.64282V76.3847H14.001V79.3832H1.40252V62.4562ZM16.746 79.3832V69.4205H14.8356V66.8089H16.746V65.2371C16.746 64.1006 17.1571 63.1333 17.9792 62.3837C18.8256 61.6341 19.8412 61.2472 21.0744 61.2472H22.7671V64.1247H21.2921C20.4215 64.1247 19.7686 64.7776 19.7686 65.6482V66.8089H24.3873V65.2371C24.3873 64.1006 24.7984 63.1333 25.6205 62.3837C26.4669 61.6341 27.4825 61.2472 28.7157 61.2472H30.4084V64.1247H28.9334C28.0628 64.1247 27.41 64.7776 27.41 65.6482V66.8089H34.9304V79.3832H31.9319V69.4205H27.41V79.3832H24.3873V69.4205H19.7686V79.3832H16.746ZM32.0528 65.1404C31.3032 64.3907 31.3032 63.1091 32.0528 62.4079C32.8024 61.6582 34.084 61.6582 34.7853 62.4079C35.5349 63.1091 35.5349 64.3907 34.7853 65.1404C34.084 65.89 32.8024 65.89 32.0528 65.1404ZM49.8878 70.6053L46.8652 71.5001C46.309 70.2426 45.0999 69.4688 43.6732 69.4688C42.6818 69.4688 41.8355 69.8074 41.1584 70.5086C40.4813 71.2099 40.1428 72.0562 40.1428 73.096C40.1428 74.1358 40.4813 74.9822 41.1584 75.6834C41.8355 76.3847 42.6818 76.7232 43.6732 76.7232C45.0999 76.7232 46.309 75.9494 46.8652 74.692L49.8878 75.5867C48.9206 78.1016 46.5508 79.7459 43.6732 79.7459C41.7629 79.7459 40.1911 79.1172 38.9095 77.8598C37.6521 76.5781 37.0234 75.0064 37.0234 73.096C37.0234 71.1857 37.6521 69.6139 38.9095 68.3565C40.1911 67.0749 41.7629 66.4462 43.6732 66.4462C46.5508 66.4462 48.9206 68.0905 49.8878 70.6053ZM54.7687 79.3832H51.746V66.8089H54.7687V79.3832ZM53.2453 65.6965C52.1571 65.6965 51.335 64.8502 51.335 63.762C51.335 62.6739 52.1571 61.8517 53.2453 61.8517C54.3334 61.8517 55.1798 62.6739 55.1798 63.762C55.1798 64.8502 54.3818 65.6965 53.2453 65.6965ZM69.9895 74.2084H60.0026C60.4621 75.8527 61.913 76.965 63.6782 76.965C64.9115 76.965 65.9029 76.5298 66.6283 75.6351L69.5543 76.4814C68.3936 78.4885 66.2173 79.7459 63.6782 79.7459C61.7437 79.7459 60.1236 79.1172 58.8178 77.8598C57.5361 76.5781 56.8833 75.0064 56.8833 73.096C56.8833 71.1857 57.512 69.6139 58.7694 68.3565C60.051 67.0749 61.6228 66.4462 63.4848 66.4462C65.3467 66.4462 66.9185 67.0749 68.1759 68.3565C69.4576 69.6381 70.0863 71.2099 70.0863 73.096C70.0863 73.362 70.0621 73.7247 69.9895 74.2084ZM60.0268 71.8628H66.9669C66.4833 70.291 65.0807 69.227 63.4364 69.227C61.8646 69.227 60.4863 70.291 60.0268 71.8628ZM71.9365 79.3832V66.8089H74.9592V68.3323C75.8781 67.0749 77.1355 66.4462 78.7315 66.4462C80.1582 66.4462 81.3189 66.9056 82.262 67.8487C83.205 68.7917 83.6887 69.9524 83.6887 71.355V79.3832H80.666V72.2013C80.666 70.557 79.4569 69.3237 77.8368 69.3237C76.1924 69.3237 74.9592 70.557 74.9592 72.2013V79.3832H71.9365ZM98.652 70.6053L95.6294 71.5001C95.0732 70.2426 93.8641 69.4688 92.4374 69.4688C91.446 69.4688 90.5996 69.8074 89.9225 70.5086C89.2455 71.2099 88.9069 72.0562 88.9069 73.096C88.9069 74.1358 89.2455 74.9822 89.9225 75.6834C90.5996 76.3847 91.446 76.7232 92.4374 76.7232C93.8641 76.7232 95.0732 75.9494 95.6294 74.692L98.652 75.5867C97.6848 78.1016 95.315 79.7459 92.4374 79.7459C90.5271 79.7459 88.9553 79.1172 87.6737 77.8598C86.4163 76.5781 85.7875 75.0064 85.7875 73.096C85.7875 71.1857 86.4163 69.6139 87.6737 68.3565C88.9553 67.0749 90.5271 66.4462 92.4374 66.4462C95.315 66.4462 97.6848 68.0905 98.652 70.6053ZM103.684 80.0119L104.023 79.1414L99.1865 66.8089H102.306L105.522 75.2965L108.811 66.8089H111.93L106.247 81.0275C105.183 83.6633 103.539 84.824 100.758 84.824H100.275V81.9464H100.758C102.209 81.9464 103.176 81.2935 103.684 80.0119ZM119.662 79.3832V66.8089H122.684V68.3323C123.603 67.0749 124.861 66.4462 126.457 66.4462C127.883 66.4462 129.044 66.9056 129.987 67.8487C130.93 68.7917 131.414 69.9524 131.414 71.355V79.3832H128.391V72.2013C128.391 70.557 127.182 69.3237 125.562 69.3237C123.918 69.3237 122.684 70.557 122.684 72.2013V79.3832H119.662ZM146.619 74.2084H136.632C137.091 75.8527 138.542 76.965 140.308 76.965C141.541 76.965 142.532 76.5298 143.258 75.6351L146.184 76.4814C145.023 78.4885 142.847 79.7459 140.308 79.7459C138.373 79.7459 136.753 79.1172 135.447 77.8598C134.166 76.5781 133.513 75.0064 133.513 73.096C133.513 71.1857 134.141 69.6139 135.399 68.3565C136.68 67.0749 138.252 66.4462 140.114 66.4462C141.976 66.4462 143.548 67.0749 144.805 68.3565C146.087 69.6381 146.716 71.2099 146.716 73.096C146.716 73.362 146.691 73.7247 146.619 74.2084ZM136.656 71.8628H143.596C143.113 70.291 141.71 69.227 140.066 69.227C138.494 69.227 137.116 70.291 136.656 71.8628ZM161.213 74.2084H151.226C151.685 75.8527 153.136 76.965 154.901 76.965C156.135 76.965 157.126 76.5298 157.852 75.6351L160.778 76.4814C159.617 78.4885 157.44 79.7459 154.901 79.7459C152.967 79.7459 151.347 79.1172 150.041 77.8598C148.759 76.5781 148.106 75.0064 148.106 73.096C148.106 71.1857 148.735 69.6139 149.993 68.3565C151.274 67.0749 152.846 66.4462 154.708 66.4462C156.57 66.4462 158.142 67.0749 159.399 68.3565C160.681 69.6381 161.31 71.2099 161.31 73.096C161.31 73.362 161.285 73.7247 161.213 74.2084ZM151.25 71.8628H158.19C157.706 70.291 156.304 69.227 154.66 69.227C153.088 69.227 151.71 70.291 151.25 71.8628ZM168.818 66.4462C170.245 66.4462 171.527 66.9056 172.639 67.8003V61.2472H175.637V79.3832H172.639V78.3917C171.527 79.2865 170.245 79.7459 168.818 79.7459C167.077 79.7459 165.626 79.1172 164.441 77.8598C163.281 76.5781 162.7 75.0064 162.7 73.096C162.7 71.1857 163.281 69.6139 164.441 68.3565C165.626 67.0749 167.077 66.4462 168.818 66.4462ZM171.599 70.5086C170.946 69.8074 170.148 69.4688 169.205 69.4688C168.262 69.4688 167.44 69.8074 166.787 70.5086C166.134 71.2099 165.82 72.0562 165.82 73.096C165.82 74.1358 166.134 74.9822 166.787 75.6834C167.44 76.3847 168.262 76.7232 169.205 76.7232C170.148 76.7232 170.946 76.3847 171.599 75.6834C172.252 74.9822 172.591 74.1358 172.591 73.096C172.591 72.0562 172.252 71.2099 171.599 70.5086ZM187.512 69.8315L184.683 70.291C184.417 69.4688 183.691 69.0577 182.482 69.0577C181.491 69.0577 180.717 69.4446 180.717 70.1459C180.717 70.557 181.08 70.8955 181.829 71.1615L184.417 72.032C186.738 72.83 187.706 73.9907 187.706 75.8043C187.706 78.4159 185.626 79.7459 182.724 79.7459C179.702 79.7459 177.864 78.3434 177.501 76.0462L180.33 75.6351C180.548 76.5298 181.418 77.1343 182.797 77.1343C183.957 77.1343 184.828 76.6749 184.828 75.9011C184.828 75.4174 184.369 75.0064 183.425 74.692L180.838 73.8698C178.71 73.1686 177.84 72.1288 177.84 70.3635C177.84 67.7278 179.822 66.4462 182.7 66.4462C185.432 66.4462 187.198 67.7278 187.512 69.8315ZM195.913 79.3832V61.2472H198.936V72.2013L203.143 66.8089H206.795L202.079 72.8784L207.303 79.3832H203.603L198.936 73.5555V79.3832H195.913ZM208.807 79.3832V66.8089H211.829V68.3323C212.748 67.0749 214.006 66.4462 215.602 66.4462C217.028 66.4462 218.189 66.9056 219.132 67.8487C220.075 68.7917 220.559 69.9524 220.559 71.355V79.3832H217.536V72.2013C217.536 70.557 216.327 69.3237 214.707 69.3237C213.063 69.3237 211.829 70.557 211.829 72.2013V79.3832H208.807ZM224.544 77.8598C223.287 76.5781 222.658 75.0064 222.658 73.096C222.658 71.1857 223.287 69.6139 224.544 68.3565C225.826 67.0749 227.397 66.4462 229.308 66.4462C231.218 66.4462 232.79 67.0749 234.071 68.3565C235.353 69.6139 235.982 71.1857 235.982 73.096C235.982 75.0064 235.353 76.5781 234.071 77.8598C232.79 79.1172 231.218 79.7459 229.308 79.7459C227.397 79.7459 225.826 79.1172 224.544 77.8598ZM226.793 70.5086C226.116 71.2099 225.777 72.0562 225.777 73.096C225.777 74.1358 226.116 74.9822 226.793 75.6834C227.47 76.3847 228.316 76.7232 229.308 76.7232C230.299 76.7232 231.145 76.3847 231.823 75.6834C232.5 74.9822 232.838 74.1358 232.838 73.096C232.838 72.0562 232.5 71.2099 231.823 70.5086C231.145 69.8074 230.299 69.4688 229.308 69.4688C228.316 69.4688 227.47 69.8074 226.793 70.5086ZM243.301 79.3832H240.593L236.482 66.8089H239.529L241.923 74.7162L244.317 66.8089H247.049L249.443 74.7162L251.837 66.8089H254.86L250.773 79.3832H248.065L245.695 71.8144L243.301 79.3832ZM259.413 79.3832H256.39V61.2472H259.413V79.3832ZM274.634 74.2084H264.647C265.106 75.8527 266.557 76.965 268.322 76.965C269.556 76.965 270.547 76.5298 271.273 75.6351L274.198 76.4814C273.038 78.4885 270.861 79.7459 268.322 79.7459C266.388 79.7459 264.768 79.1172 263.462 77.8598C262.18 76.5781 261.527 75.0064 261.527 73.096C261.527 71.1857 262.156 69.6139 263.414 68.3565C264.695 67.0749 266.267 66.4462 268.129 66.4462C269.991 66.4462 271.563 67.0749 272.82 68.3565C274.102 69.6381 274.73 71.2099 274.73 73.096C274.73 73.362 274.706 73.7247 274.634 74.2084ZM264.671 71.8628H271.611C271.127 70.291 269.725 69.227 268.081 69.227C266.509 69.227 265.13 70.291 264.671 71.8628ZM282.239 66.4462C283.666 66.4462 284.947 66.9056 286.06 67.8003V61.2472H289.058V79.3832H286.06V78.3917C284.947 79.2865 283.666 79.7459 282.239 79.7459C280.498 79.7459 279.047 79.1172 277.862 77.8598C276.702 76.5781 276.121 75.0064 276.121 73.096C276.121 71.1857 276.702 69.6139 277.862 68.3565C279.047 67.0749 280.498 66.4462 282.239 66.4462ZM285.02 70.5086C284.367 69.8074 283.569 69.4688 282.626 69.4688C281.683 69.4688 280.861 69.8074 280.208 70.5086C279.555 71.2099 279.241 72.0562 279.241 73.096C279.241 74.1358 279.555 74.9822 280.208 75.6834C280.861 76.3847 281.683 76.7232 282.626 76.7232C283.569 76.7232 284.367 76.3847 285.02 75.6834C285.673 74.9822 286.011 74.1358 286.011 73.096C286.011 72.0562 285.673 71.2099 285.02 70.5086ZM297.282 66.4462C298.708 66.4462 299.99 66.9056 301.102 67.8003V66.8089H304.101V79.0446C304.101 80.7857 303.496 82.2366 302.287 83.4215C301.078 84.6064 299.603 85.1867 297.862 85.1867C296.484 85.1867 295.226 84.824 294.09 84.0985C292.953 83.3973 292.155 82.5026 291.72 81.4144L294.743 80.5439C295.202 81.487 296.435 82.1882 297.765 82.1882C298.708 82.1882 299.482 81.8739 300.135 81.2693C300.788 80.6648 301.102 79.9394 301.102 79.0446V78.3917C299.99 79.2865 298.708 79.7459 297.282 79.7459C295.541 79.7459 294.09 79.1172 292.905 77.8598C291.744 76.5781 291.164 75.0064 291.164 73.096C291.164 71.1857 291.744 69.6139 292.905 68.3565C294.09 67.0749 295.541 66.4462 297.282 66.4462ZM300.063 70.5086C299.41 69.8074 298.612 69.4688 297.669 69.4688C296.725 69.4688 295.903 69.8074 295.25 70.5086C294.598 71.2099 294.283 72.0562 294.283 73.096C294.283 74.1358 294.598 74.9822 295.25 75.6834C295.903 76.3847 296.725 76.7232 297.669 76.7232C298.612 76.7232 299.41 76.3847 300.063 75.6834C300.715 74.9822 301.054 74.1358 301.054 73.096C301.054 72.0562 300.715 71.2099 300.063 70.5086ZM319.313 74.2084H309.326C309.785 75.8527 311.236 76.965 313.001 76.965C314.235 76.965 315.226 76.5298 315.951 75.6351L318.877 76.4814C317.717 78.4885 315.54 79.7459 313.001 79.7459C311.067 79.7459 309.447 79.1172 308.141 77.8598C306.859 76.5781 306.206 75.0064 306.206 73.096C306.206 71.1857 306.835 69.6139 308.092 68.3565C309.374 67.0749 310.946 66.4462 312.808 66.4462C314.67 66.4462 316.242 67.0749 317.499 68.3565C318.781 69.6381 319.409 71.2099 319.409 73.096C319.409 73.362 319.385 73.7247 319.313 74.2084ZM309.35 71.8628H316.29C315.806 70.291 314.404 69.227 312.759 69.227C311.188 69.227 309.809 70.291 309.35 71.8628Z" fill="white"/>
<defs>
<clipPath id="clip0_159_2245">
<rect width="320" height="53.3832" fill="white"/>
</clipPath>
</defs>
</svg>
